<svg width="716" height="128" viewBox="0 0 716 128" fill="none" xmlns="http://www.w3.org/2000/svg">
<path d="M109.104 39.08C109.104 46.3333 106.544 52.6053 101.424 57.896C96.304 63.1013 88.8373 66.856 79.024 69.16C84.3147 70.6107 88.3253 73 91.056 76.328C93.7867 79.5707 95.152 83.3253 95.152 87.592C95.152 94.3333 93.0187 100.179 88.752 105.128C84.5707 110.077 78.4267 113.917 70.32 116.648C62.2133 119.293 52.4427 120.616 41.008 120.616C36.7413 120.616 33.328 120.488 30.768 120.232C30.6827 122.621 29.6587 124.413 27.696 125.608C25.7333 126.803 23.216 127.4 20.144 127.4C17.072 127.4 14.9387 126.717 13.744 125.352C12.6347 123.987 12.1653 121.981 12.336 119.336C13.104 107.389 14.5973 94.888 16.816 81.832C19.0347 68.6907 21.8507 56.0187 25.264 43.816C25.8613 41.6827 27.056 40.1893 28.848 39.336C30.64 38.4827 32.9867 38.056 35.888 38.056C41.0933 38.056 43.696 39.5067 43.696 42.408C43.696 43.6027 43.44 44.968 42.928 46.504C40.7093 53.16 38.4907 62.2053 36.272 73.64C34.0533 84.9893 32.4747 95.8267 31.536 106.152C35.632 106.493 38.96 106.664 41.52 106.664C53.4667 106.664 62.2133 104.957 67.76 101.544C73.392 98.0453 76.208 93.608 76.208 88.232C76.208 84.4773 74.5867 81.32 71.344 78.76C68.1867 76.2 62.8533 74.792 55.344 74.536C53.6373 74.4507 52.4427 74.024 51.76 73.256C51.0773 72.488 50.736 71.2507 50.736 69.544C50.736 67.0693 51.248 65.064 52.272 63.528C53.296 61.992 55.1733 61.1813 57.904 61.096C63.9627 60.9253 69.424 60.0293 74.288 58.408C79.2373 56.7867 83.12 54.5253 85.936 51.624C88.752 48.6373 90.16 45.1813 90.16 41.256C90.16 36.3067 87.728 32.424 82.864 29.608C78 26.7067 70.5333 25.256 60.464 25.256C51.3333 25.256 42.5013 26.4507 33.968 28.84C25.4347 31.144 18.1813 34.088 12.208 37.672C9.47733 39.2933 7.17333 40.104 5.296 40.104C3.76 40.104 2.56533 39.592 1.712 38.568C0.944 37.4587 0.56 36.0933 0.56 34.472C0.56 32.3387 0.986667 30.504 1.84 28.968C2.77867 27.432 4.95467 25.6827 8.368 23.72C15.536 19.624 23.9413 16.424 33.584 14.12C43.2267 11.816 53.0827 10.664 63.152 10.664C78.5973 10.664 90.1173 13.2667 97.712 18.472C105.307 23.6773 109.104 30.5467 109.104 39.08ZM120.638 121.64C115.347 121.64 111.123 119.72 107.966 115.88C104.809 112.04 103.23 107.005 103.23 100.776C103.23 93.9493 104.809 87.5067 107.966 81.448C111.123 75.304 115.305 70.3973 120.51 66.728C125.801 62.9733 131.39 61.096 137.278 61.096C139.155 61.096 140.393 61.48 140.99 62.248C141.673 62.9307 142.227 64.2107 142.654 66.088C144.446 65.7467 146.323 65.576 148.286 65.576C152.467 65.576 154.558 67.0693 154.558 70.056C154.558 71.848 153.918 76.1147 152.638 82.856C150.675 92.6693 149.694 99.496 149.694 103.336C149.694 104.616 149.993 105.64 150.59 106.408C151.273 107.176 152.126 107.56 153.15 107.56C154.771 107.56 156.734 106.536 159.038 104.488C161.342 102.355 164.457 98.9413 168.382 94.248C169.406 93.0533 170.558 92.456 171.838 92.456C172.947 92.456 173.801 92.968 174.398 93.992C175.081 95.016 175.422 96.424 175.422 98.216C175.422 101.629 174.611 104.275 172.99 106.152C169.491 110.504 165.779 114.173 161.854 117.16C157.929 120.147 154.131 121.64 150.462 121.64C147.646 121.64 145.043 120.701 142.654 118.824C140.35 116.861 138.601 114.216 137.406 110.888C132.969 118.056 127.379 121.64 120.638 121.64ZM125.246 108.712C127.123 108.712 128.915 107.603 130.622 105.384C132.329 103.165 133.566 100.221 134.334 96.552L139.07 73C135.486 73.0853 132.158 74.4507 129.086 77.096C126.099 79.656 123.71 83.0693 121.918 87.336C120.126 91.6027 119.23 96.1253 119.23 100.904C119.23 103.549 119.742 105.512 120.766 106.792C121.875 108.072 123.369 108.712 125.246 108.712ZM213.531 92.456C214.64 92.456 215.494 92.968 216.091 93.992C216.774 95.016 217.115 96.424 217.115 98.216C217.115 101.629 216.304 104.275 214.683 106.152C211.014 110.675 207.003 114.387 202.651 117.288C198.384 120.189 193.52 121.64 188.059 121.64C180.55 121.64 174.96 118.227 171.291 111.4C167.707 104.573 165.915 95.7413 165.915 84.904C165.915 74.4933 167.238 62.632 169.883 49.32C172.614 36.008 176.582 24.5733 181.787 15.016C187.078 5.45866 193.35 0.679993 200.603 0.679993C204.699 0.679993 207.899 2.59999 210.203 6.43999C212.592 10.1947 213.787 15.6133 213.787 22.696C213.787 32.8507 210.971 44.6267 205.339 58.024C199.707 71.4213 192.07 84.6907 182.427 97.832C183.024 101.331 184.006 103.848 185.371 105.384C186.736 106.835 188.528 107.56 190.747 107.56C194.246 107.56 197.318 106.579 199.963 104.616C202.608 102.568 205.979 99.112 210.075 94.248C211.099 93.0533 212.251 92.456 213.531 92.456ZM197.787 13.352C195.824 13.352 193.606 16.8933 191.131 23.976C188.656 31.0587 186.48 39.848 184.603 50.344C182.726 60.84 181.702 70.9093 181.531 80.552C187.59 70.568 192.411 60.584 195.995 50.6C199.579 40.5307 201.371 31.3573 201.371 23.08C201.371 16.5947 200.176 13.352 197.787 13.352ZM221.263 121.64C215.972 121.64 211.748 119.72 208.591 115.88C205.434 112.04 203.855 107.005 203.855 100.776C203.855 93.9493 205.434 87.5067 208.591 81.448C211.748 75.304 215.93 70.3973 221.135 66.728C226.426 62.9733 232.015 61.096 237.903 61.096C239.78 61.096 241.018 61.48 241.615 62.248C242.298 62.9307 242.852 64.2107 243.279 66.088C245.071 65.7467 246.948 65.576 248.911 65.576C253.092 65.576 255.183 67.0693 255.183 70.056C255.183 71.848 254.543 76.1147 253.263 82.856C251.3 92.6693 250.319 99.496 250.319 103.336C250.319 104.616 250.618 105.64 251.215 106.408C251.898 107.176 252.751 107.56 253.775 107.56C255.396 107.56 257.359 106.536 259.663 104.488C261.967 102.355 265.082 98.9413 269.007 94.248C270.031 93.0533 271.183 92.456 272.463 92.456C273.572 92.456 274.426 92.968 275.023 93.992C275.706 95.016 276.047 96.424 276.047 98.216C276.047 101.629 275.236 104.275 273.615 106.152C270.116 110.504 266.404 114.173 262.479 117.16C258.554 120.147 254.756 121.64 251.087 121.64C248.271 121.64 245.668 120.701 243.279 118.824C240.975 116.861 239.226 114.216 238.031 110.888C233.594 118.056 228.004 121.64 221.263 121.64ZM225.871 108.712C227.748 108.712 229.54 107.603 231.247 105.384C232.954 103.165 234.191 100.221 234.959 96.552L239.695 73C236.111 73.0853 232.783 74.4507 229.711 77.096C226.724 79.656 224.335 83.0693 222.543 87.336C220.751 91.6027 219.855 96.1253 219.855 100.904C219.855 103.549 220.367 105.512 221.391 106.792C222.5 108.072 223.994 108.712 225.871 108.712ZM274.732 121.64C271.489 121.64 269.185 119.933 267.82 116.52C266.54 113.107 265.9 107.645 265.9 100.136C265.9 89.0427 267.479 78.504 270.636 68.52C271.404 66.0453 272.641 64.2533 274.348 63.144C276.14 61.9493 278.615 61.352 281.772 61.352C283.479 61.352 284.673 61.5653 285.356 61.992C286.039 62.4187 286.38 63.2293 286.38 64.424C286.38 65.7893 285.74 68.8613 284.46 73.64C283.607 77.0533 282.924 80.04 282.412 82.6C281.9 85.16 281.473 88.3173 281.132 92.072C283.948 84.7333 287.105 78.76 290.604 74.152C294.103 69.544 297.516 66.2587 300.844 64.296C304.257 62.3333 307.372 61.352 310.188 61.352C315.735 61.352 318.508 64.1253 318.508 69.672C318.508 73 317.569 79.016 315.692 87.72C314.071 95.144 313.26 100.051 313.26 102.44C313.26 105.853 314.497 107.56 316.972 107.56C318.679 107.56 320.684 106.536 322.988 104.488C325.377 102.355 328.535 98.9413 332.46 94.248C333.484 93.0533 334.636 92.456 335.916 92.456C337.025 92.456 337.879 92.968 338.476 93.992C339.159 95.016 339.5 96.424 339.5 98.216C339.5 101.629 338.689 104.275 337.068 106.152C333.399 110.675 329.431 114.387 325.164 117.288C320.983 120.189 316.204 121.64 310.828 121.64C306.476 121.64 303.191 120.403 300.972 117.928C298.753 115.368 297.644 111.699 297.644 106.92C297.644 104.531 298.241 100.264 299.436 94.12C300.545 88.744 301.1 85.032 301.1 82.984C301.1 81.6187 300.631 80.936 299.692 80.936C298.583 80.936 297.004 82.3867 294.956 85.288C292.993 88.104 290.945 91.8587 288.812 96.552C286.764 101.245 285.1 106.195 283.82 111.4C282.881 115.411 281.772 118.141 280.492 119.592C279.297 120.957 277.377 121.64 274.732 121.64ZM353.592 121.64C345.229 121.64 338.701 119.293 334.008 114.6C329.4 109.821 327.096 103.549 327.096 95.784C327.096 88.872 328.461 82.8133 331.192 77.608C333.923 72.4027 337.464 68.392 341.816 65.576C346.168 62.76 350.733 61.352 355.512 61.352C360.205 61.352 363.832 62.76 366.392 65.576C369.037 68.3067 370.36 71.848 370.36 76.2C370.36 79.784 369.549 82.8133 367.928 85.288C366.392 87.7627 364.344 89 361.784 89C360.163 89 358.84 88.616 357.816 87.848C356.877 87.08 356.408 86.0133 356.408 84.648C356.408 84.0507 356.493 83.368 356.664 82.6C356.835 81.832 356.963 81.2773 357.048 80.936C357.475 79.656 357.688 78.4613 357.688 77.352C357.688 76.2427 357.389 75.3893 356.792 74.792C356.28 74.1947 355.512 73.896 354.488 73.896C352.525 73.896 350.691 74.792 348.984 76.584C347.277 78.2907 345.912 80.6373 344.888 83.624C343.864 86.6107 343.352 89.896 343.352 93.48C343.352 103.379 347.661 108.328 356.28 108.328C359.779 108.328 363.533 107.176 367.544 104.872C371.64 102.483 375.651 98.9413 379.576 94.248C380.6 93.0533 381.752 92.456 383.032 92.456C384.141 92.456 384.995 92.968 385.592 93.992C386.275 95.016 386.616 96.424 386.616 98.216C386.616 101.459 385.805 104.104 384.184 106.152C380.173 111.101 375.352 114.941 369.72 117.672C364.173 120.317 358.797 121.64 353.592 121.64ZM433.357 92.456C434.466 92.456 435.32 92.968 435.917 93.992C436.6 95.016 436.941 96.424 436.941 98.216C436.941 101.629 436.13 104.275 434.509 106.152C431.352 109.992 426.872 113.533 421.069 116.776C415.352 120.019 409.208 121.64 402.637 121.64C393.677 121.64 386.722 119.208 381.773 114.344C376.824 109.48 374.349 102.824 374.349 94.376C374.349 88.488 375.586 83.0267 378.061 77.992C380.536 72.872 383.949 68.8187 388.301 65.832C392.738 62.8453 397.73 61.352 403.277 61.352C408.226 61.352 412.194 62.8453 415.181 65.832C418.168 68.7333 419.661 72.7013 419.661 77.736C419.661 83.624 417.528 88.7013 413.261 92.968C409.08 97.1493 401.954 100.477 391.885 102.952C394.018 106.877 398.072 108.84 404.045 108.84C407.885 108.84 412.237 107.517 417.101 104.872C422.05 102.141 426.317 98.6 429.901 94.248C430.925 93.0533 432.077 92.456 433.357 92.456ZM401.101 73.896C397.944 73.896 395.256 75.7307 393.037 79.4C390.904 83.0693 389.837 87.5067 389.837 92.712V92.968C394.872 91.7733 398.84 89.9813 401.741 87.592C404.642 85.2027 406.093 82.4293 406.093 79.272C406.093 77.6507 405.624 76.3707 404.685 75.432C403.832 74.408 402.637 73.896 401.101 73.896ZM533.911 14.888C536.3 15.2293 537.922 15.9547 538.775 17.064C539.714 18.1733 540.183 19.624 540.183 21.416C540.183 27.304 537.026 30.0347 530.711 29.608L526.231 29.224C521.196 28.7973 516.162 28.456 511.127 28.2C506.178 27.944 500.972 27.816 495.511 27.816H489.751C488.727 40.4453 487.66 51.9653 486.551 62.376L508.567 61.992C511.724 61.992 513.815 62.5467 514.839 63.656C515.948 64.7653 516.503 66.2587 516.503 68.136C516.503 71.0373 515.65 73.3413 513.943 75.048C512.236 76.6693 509.804 77.48 506.647 77.48H484.759L483.991 82.984C482.199 97.064 478.359 107.091 472.471 113.064C466.668 119.037 458.647 122.024 448.407 122.024C442.604 122.024 437.271 120.787 432.407 118.312C427.543 115.752 423.959 112.68 421.655 109.096C420.716 107.645 420.247 105.896 420.247 103.848C420.247 101.8 420.716 100.008 421.655 98.472C422.679 96.936 423.916 96.168 425.367 96.168C426.391 96.168 427.372 96.5093 428.311 97.192C429.335 97.8747 430.615 99.1973 432.151 101.16C436.247 106.536 441.324 109.224 447.383 109.224C452.247 109.224 456.3 107.261 459.543 103.336C462.871 99.3253 465.004 93.0533 465.943 84.52L466.711 77.48H460.567C458.604 77.48 456.898 76.9253 455.447 75.816C454.082 74.7067 453.399 73.128 453.399 71.08C453.399 68.4347 454.082 66.4293 455.447 65.064C456.812 63.6133 458.818 62.888 461.463 62.888C463.852 62.888 466.199 62.8453 468.503 62.76C469.527 53.3733 470.636 41.9813 471.831 28.584C462.615 29.4373 456.13 30.9307 452.375 33.064C448.62 35.1973 446.743 38.3547 446.743 42.536C446.743 45.4373 447.596 48.2107 449.303 50.856C449.815 51.624 450.071 52.392 450.071 53.16C450.071 54.696 449.218 56.0613 447.511 57.256C445.804 58.3653 443.884 58.92 441.751 58.92C439.447 58.92 437.484 58.2373 435.863 56.872C434.839 56.0187 433.858 54.2693 432.919 51.624C431.98 48.9787 431.511 46.0347 431.511 42.792C431.511 32.2107 436.93 24.5307 447.767 19.752C458.69 14.9733 474.604 12.584 495.511 12.584C510.018 12.584 522.818 13.352 533.911 14.888ZM534.412 52.904C530.828 52.904 528.14 52.0933 526.348 50.472C524.556 48.7653 523.66 46.4187 523.66 43.432C523.66 40.4453 524.812 37.9707 527.116 36.008C529.505 33.96 532.449 32.936 535.948 32.936C539.105 32.936 541.665 33.704 543.628 35.24C545.591 36.776 546.572 38.952 546.572 41.768C546.572 45.1813 545.463 47.912 543.244 49.96C541.025 51.9227 538.081 52.904 534.412 52.904ZM533.388 121.64C527.841 121.64 523.788 119.677 521.228 115.752C518.753 111.827 517.516 106.621 517.516 100.136C517.516 96.296 517.985 91.3893 518.924 85.416C519.948 79.3573 521.228 73.7253 522.764 68.52C523.532 65.7893 524.556 63.912 525.836 62.888C527.116 61.864 529.164 61.352 531.98 61.352C536.332 61.352 538.508 62.8027 538.508 65.704C538.508 67.8373 537.697 72.7867 536.076 80.552C534.028 89.9387 533.004 96.296 533.004 99.624C533.004 102.184 533.345 104.147 534.028 105.512C534.711 106.877 535.863 107.56 537.484 107.56C539.02 107.56 540.94 106.493 543.244 104.36C545.548 102.227 548.62 98.856 552.46 94.248C553.484 93.0533 554.636 92.456 555.916 92.456C557.025 92.456 557.879 92.968 558.476 93.992C559.159 95.016 559.5 96.424 559.5 98.216C559.5 101.629 558.689 104.275 557.068 106.152C548.62 116.477 540.727 121.64 533.388 121.64ZM600.856 78.888C602.733 78.888 604.312 79.5707 605.592 80.936C606.957 82.216 607.64 83.8373 607.64 85.8C607.64 86.9093 607.384 88.104 606.872 89.384C605.507 92.5413 603.587 95.1867 601.112 97.32C598.637 99.4533 595.907 100.52 592.92 100.52C590.531 100.52 588.483 99.6667 586.776 97.96C585.155 96.2533 584.344 93.9493 584.344 91.048C584.344 89.4267 584.429 87.6773 584.6 85.8C584.771 84.4347 584.856 83.496 584.856 82.984C584.856 82.3013 584.685 81.7893 584.344 81.448C584.088 81.1067 583.747 80.936 583.32 80.936C582.125 80.936 580.504 82.3867 578.456 85.288C576.408 88.104 574.36 91.8587 572.312 96.552C570.264 101.245 568.6 106.195 567.32 111.4C566.381 115.496 565.315 118.227 564.12 119.592C562.925 120.957 560.963 121.64 558.232 121.64C554.989 121.64 552.685 119.933 551.32 116.52C550.04 113.107 549.4 107.645 549.4 100.136C549.4 89.0427 550.979 78.504 554.136 68.52C554.904 66.0453 556.141 64.2533 557.848 63.144C559.64 61.9493 562.115 61.352 565.272 61.352C566.979 61.352 568.173 61.5653 568.856 61.992C569.539 62.4187 569.88 63.2293 569.88 64.424C569.88 65.7893 569.24 68.8613 567.96 73.64C567.107 77.0533 566.424 80.04 565.912 82.6C565.4 85.16 564.973 88.3173 564.632 92.072C567.448 84.7333 570.605 78.76 574.104 74.152C577.603 69.544 581.016 66.2587 584.344 64.296C587.672 62.3333 590.701 61.352 593.432 61.352C595.907 61.352 597.784 62.0773 599.064 63.528C600.429 64.8933 601.112 66.9413 601.112 69.672C601.112 71.2933 600.643 74.3653 599.704 78.888H600.856ZM633.077 124.456C628.64 124.456 625.226 123.432 622.837 121.384C620.533 119.336 619.381 117.032 619.381 114.472C619.381 112.253 620.192 110.333 621.813 108.712C623.434 107.091 625.824 106.28 628.981 106.28C630.09 106.28 631.37 106.408 632.821 106.664C634.357 106.835 635.509 106.963 636.277 107.048C636.192 104.829 635.68 102.739 634.741 100.776C633.888 98.8133 632.778 96.936 631.413 95.144C630.048 93.2667 628.768 91.6453 627.573 90.28C624.928 95.3147 622.282 99.496 619.637 102.824C617.077 106.152 614.261 109.309 611.189 112.296C609.653 113.832 608.032 114.6 606.325 114.6C604.96 114.6 603.85 114.131 602.997 113.192C602.144 112.168 601.717 110.931 601.717 109.48C601.717 107.773 602.314 106.195 603.509 104.744L605.173 102.696C609.866 96.8933 613.408 92.1147 615.797 88.36C617.248 85.8853 618.954 82.6 620.917 78.504C622.88 74.3227 624.8 70.0133 626.677 65.576C628.298 61.8213 631.669 59.944 636.789 59.944C639.178 59.944 640.842 60.1573 641.781 60.584C642.72 61.0107 643.189 61.6933 643.189 62.632C643.189 63.144 643.018 63.9547 642.677 65.064C642.336 66.1733 641.866 67.2827 641.269 68.392C639.733 71.464 638.965 74.0667 638.965 76.2C638.965 77.48 639.392 78.888 640.245 80.424C641.184 81.96 642.592 83.88 644.469 86.184C647.2 89.768 649.248 92.84 650.613 95.4C652.064 97.8747 652.789 100.605 652.789 103.592C652.789 104.445 652.704 105.64 652.533 107.176C656.714 105.555 661.621 101.245 667.253 94.248C668.277 93.0533 669.429 92.456 670.709 92.456C671.818 92.456 672.672 92.968 673.269 93.992C673.952 95.016 674.293 96.424 674.293 98.216C674.293 101.459 673.482 104.104 671.861 106.152C667.594 111.443 663.498 115.069 659.573 117.032C655.733 118.909 650.954 119.933 645.237 120.104C641.824 123.005 637.77 124.456 633.077 124.456ZM685.014 73.512C684.843 77.7787 684.758 81.1067 684.758 83.496C684.758 89.64 685.057 94.4613 685.654 97.96C686.337 101.373 687.403 103.848 688.854 105.384C690.39 106.835 692.481 107.56 695.126 107.56C696.491 107.56 698.113 107.133 699.99 106.28C701.867 105.427 703.574 104.317 705.11 102.952C706.049 102.099 706.987 101.672 707.926 101.672C708.95 101.672 709.761 102.269 710.358 103.464C711.041 104.573 711.382 105.939 711.382 107.56C711.382 109.181 711.041 110.76 710.358 112.296C709.761 113.832 708.822 115.112 707.542 116.136C703.105 119.805 698.07 121.64 692.438 121.64C684.331 121.64 678.401 118.269 674.646 111.528C670.891 104.701 669.014 95.8267 669.014 84.904C669.014 81.1493 669.142 77.352 669.398 73.512H664.406C661.846 73.512 660.097 73.0427 659.158 72.104C658.305 71.1653 657.878 69.672 657.878 67.624C657.878 62.8453 659.798 60.456 663.638 60.456H670.934C672.385 51.0693 674.603 42.4933 677.59 34.728C680.577 26.9627 684.161 20.776 688.342 16.168C692.609 11.56 697.174 9.256 702.038 9.256C705.622 9.256 708.438 10.8347 710.486 13.992C712.534 17.1493 713.558 21.1173 713.558 25.896C713.558 39.1227 708.011 50.6427 696.918 60.456H711.254C712.619 60.456 713.601 60.7547 714.198 61.352C714.795 61.9493 715.094 63.0587 715.094 64.68C715.094 70.568 710.273 73.512 700.63 73.512H685.014ZM698.582 21.544C697.302 21.544 695.851 23.1653 694.23 26.408C692.694 29.5653 691.201 34.0027 689.75 39.72C688.385 45.352 687.233 51.624 686.294 58.536C691.329 54.184 695.083 49.32 697.558 43.944C700.118 38.4827 701.398 33.5333 701.398 29.096C701.398 24.0613 700.459 21.544 698.582 21.544Z" fill="black"/>
</svg>
