<svg width="110" height="118" viewBox="0 0 110 118" fill="none" xmlns="http://www.w3.org/2000/svg">
<path d="M109.104 29.08C109.104 36.3333 106.544 42.6053 101.424 47.896C96.304 53.1013 88.8373 56.856 79.024 59.16C84.3147 60.6107 88.3253 63 91.056 66.328C93.7867 69.5707 95.152 73.3253 95.152 77.592C95.152 84.3333 93.0187 90.1787 88.752 95.128C84.5707 100.077 78.4267 103.917 70.32 106.648C62.2133 109.293 52.4427 110.616 41.008 110.616C36.7413 110.616 33.328 110.488 30.768 110.232C30.6827 112.621 29.6587 114.413 27.696 115.608C25.7333 116.803 23.216 117.4 20.144 117.4C17.072 117.4 14.9387 116.717 13.744 115.352C12.6347 113.987 12.1653 111.981 12.336 109.336C13.104 97.3893 14.5973 84.888 16.816 71.832C19.0347 58.6907 21.8507 46.0187 25.264 33.816C25.8613 31.6827 27.056 30.1893 28.848 29.336C30.64 28.4827 32.9867 28.056 35.888 28.056C41.0933 28.056 43.696 29.5067 43.696 32.408C43.696 33.6027 43.44 34.968 42.928 36.504C40.7093 43.16 38.4907 52.2053 36.272 63.64C34.0533 74.9893 32.4747 85.8267 31.536 96.152C35.632 96.4933 38.96 96.664 41.52 96.664C53.4667 96.664 62.2133 94.9573 67.76 91.544C73.392 88.0453 76.208 83.608 76.208 78.232C76.208 74.4773 74.5867 71.32 71.344 68.76C68.1867 66.2 62.8533 64.792 55.344 64.536C53.6373 64.4507 52.4427 64.024 51.76 63.256C51.0773 62.488 50.736 61.2507 50.736 59.544C50.736 57.0693 51.248 55.064 52.272 53.528C53.296 51.992 55.1733 51.1813 57.904 51.096C63.9627 50.9253 69.424 50.0293 74.288 48.408C79.2373 46.7867 83.12 44.5253 85.936 41.624C88.752 38.6373 90.16 35.1813 90.16 31.256C90.16 26.3067 87.728 22.424 82.864 19.608C78 16.7067 70.5333 15.256 60.464 15.256C51.3333 15.256 42.5013 16.4507 33.968 18.84C25.4347 21.144 18.1813 24.088 12.208 27.672C9.47733 29.2933 7.17333 30.104 5.296 30.104C3.76 30.104 2.56533 29.592 1.712 28.568C0.944 27.4587 0.56 26.0933 0.56 24.472C0.56 22.3387 0.986667 20.504 1.84 18.968C2.77867 17.432 4.95467 15.6827 8.368 13.72C15.536 9.624 23.9413 6.424 33.584 4.12C43.2267 1.81599 53.0827 0.663994 63.152 0.663994C78.5973 0.663994 90.1173 3.26666 97.712 8.47199C105.307 13.6773 109.104 20.5467 109.104 29.08Z" fill="black"/>
</svg>
